<?xml version="1.0" encoding="UTF-8" standalone="no"?>
<svg
   width="10.83in"
   height="4in"
   viewBox="0 0 275.08199 101.60001"
   version="1.1"
   id="svg8"
   inkscape:version="1.1.1 (3bf5ae0d25, 2021-09-20)"
   sodipodi:docname="medplum-logo-inkscape-font-as-path.svg"
   xmlns:inkscape="http://www.inkscape.org/namespaces/inkscape"
   xmlns:sodipodi="http://sodipodi.sourceforge.net/DTD/sodipodi-0.dtd"
   xmlns="http://www.w3.org/2000/svg"
   xmlns:svg="http://www.w3.org/2000/svg"
   xmlns:rdf="http://www.w3.org/1999/02/22-rdf-syntax-ns#"
   xmlns:cc="http://creativecommons.org/ns#"
   xmlns:dc="http://purl.org/dc/elements/1.1/">
  <title
     id="title925">Medplum Logo</title>
  <defs
     id="defs2">
    <rect
       x="10.690781"
       y="10.690781"
       width="171.05251"
       height="36.883194"
       id="rect835" />
  </defs>
  <sodipodi:namedview
     id="base"
     pagecolor="#ffffff"
     bordercolor="#666666"
     borderopacity="1.0"
     inkscape:pageopacity="0.0"
     inkscape:pageshadow="2"
     inkscape:zoom="0.60058097"
     inkscape:cx="362.98186"
     inkscape:cy="276.39903"
     inkscape:document-units="in"
     inkscape:current-layer="text833"
     inkscape:document-rotation="0"
     showgrid="false"
     units="in"
     inkscape:window-width="3840"
     inkscape:window-height="2054"
     inkscape:window-x="-11"
     inkscape:window-y="-11"
     inkscape:window-maximized="1"
     inkscape:showpageshadow="2"
     inkscape:pagecheckerboard="0"
     inkscape:deskcolor="#d1d1d1" />
  <metadata
     id="metadata5">
    <rdf:RDF>
      <cc:Work
         rdf:about="">
        <dc:format>image/svg+xml</dc:format>
        <dc:type
           rdf:resource="http://purl.org/dc/dcmitype/StillImage" />
        <dc:title>Medplum Logo</dc:title>
        <cc:license
           rdf:resource="http://creativecommons.org/publicdomain/zero/1.0/" />
        <dc:creator>
          <cc:Agent>
            <dc:title>Medplum &lt;hello@medplum.com&gt;</dc:title>
          </cc:Agent>
        </dc:creator>
      </cc:Work>
      <cc:License
         rdf:about="http://creativecommons.org/publicdomain/zero/1.0/">
        <cc:permits
           rdf:resource="http://creativecommons.org/ns#Reproduction" />
        <cc:permits
           rdf:resource="http://creativecommons.org/ns#Distribution" />
        <cc:permits
           rdf:resource="http://creativecommons.org/ns#DerivativeWorks" />
      </cc:License>
    </rdf:RDF>
  </metadata>
  <g
     inkscape:label="Layer 1"
     inkscape:groupmode="layer"
     id="layer1">
    <g
       aria-label="Medplum"
       transform="matrix(1.7945555,0,0,1.7945555,43.533468,6.4482176)"
       id="text833"
       style="font-weight:bold;font-size:22.5778px;line-height:1.25;font-family:Ubuntu;-inkscape-font-specification:'Ubuntu Bold';white-space:pre;shape-inside:url(#rect835)">
      <path
         d="M 29.994985,31.289818 H 25.783696 V 20.298575 l -3.042712,7.132732 H 19.819541 L 16.776829,20.298575 V 31.289818 H 12.786026 V 14.874611 h 4.916846 l 3.693146,8.235164 3.682122,-8.235164 h 4.916845 z"
         style="fill:#7857c5"
         id="path18" />
      <path
         d="m 46.156634,25.832782 h -9.084037 q 0.08819,1.455209 1.102431,2.226912 1.025262,0.771702 3.009639,0.771702 1.256772,0 2.436374,-0.451997 1.179602,-0.451997 1.863109,-0.97014 h 0.440973 v 3.186027 q -1.344967,0.540192 -2.535593,0.782727 -1.190626,0.242535 -2.634812,0.242535 -3.726219,0 -5.710596,-1.675696 -1.984377,-1.675696 -1.984377,-4.773529 0,-3.064761 1.874134,-4.8507 1.885158,-1.796963 5.15938,-1.796963 3.020663,0 4.542019,1.53238 1.521356,1.521355 1.521356,4.387678 z m -3.946706,-2.326131 q -0.03307,-1.245748 -0.617362,-1.874134 -0.584288,-0.628386 -1.819012,-0.628386 -1.146529,0 -1.885158,0.595313 -0.738629,0.595313 -0.826824,1.907207 z"
         style="fill:#7857c5"
         id="path20" />
      <path
         d="M 60.995364,31.289818 H 57.02661 v -1.289845 q -1.025262,0.837848 -1.918231,1.234724 -0.89297,0.396875 -2.061548,0.396875 -2.259985,0 -3.615976,-1.741842 -1.355991,-1.741842 -1.355991,-4.696359 0,-1.576477 0.451997,-2.789152 0.463022,-1.223699 1.256773,-2.09462 0.749653,-0.826824 1.819012,-1.278821 1.069359,-0.463021 2.138717,-0.463021 1.113456,0 1.819013,0.242535 0.71658,0.23151 1.466234,0.595313 v -5.269624 h 3.968754 z M 57.02661,27.87228 v -6.074398 q -0.418924,-0.176389 -0.881946,-0.25356 -0.463021,-0.07717 -0.848872,-0.07717 -1.565453,0 -2.34818,0.981164 -0.782726,0.97014 -0.782726,2.700958 0,1.819012 0.628386,2.645836 0.628386,0.815799 2.01745,0.815799 0.540192,0 1.146529,-0.198437 0.606337,-0.209462 1.069359,-0.540192 z"
         style="fill:#7857c5"
         id="path22" />
      <path
         d="m 77.664132,24.928788 q 0,1.53238 -0.474045,2.789152 -0.463022,1.256772 -1.223699,2.072571 -0.793751,0.859897 -1.796964,1.30087 -1.003213,0.440972 -2.149742,0.440972 -1.058334,0 -1.796964,-0.23151 -0.738629,-0.220487 -1.510331,-0.628386 v 5.15938 H 64.743633 V 18.909511 h 3.968754 v 1.289845 q 0.915018,-0.727605 1.86311,-1.179602 0.959115,-0.451997 2.204863,-0.451997 2.315107,0 3.593927,1.697745 1.289845,1.697744 1.289845,4.663286 z m -4.090021,0.07717 q 0,-1.807988 -0.617362,-2.623788 -0.617362,-0.815799 -1.951304,-0.815799 -0.56224,0 -1.157553,0.176389 -0.595313,0.165365 -1.135505,0.48507 v 6.228739 q 0.396875,0.15434 0.848872,0.198438 0.451997,0.0441 0.89297,0.0441 1.576477,0 2.34818,-0.915018 0.771702,-0.926043 0.771702,-2.778128 z"
         style="fill:#7857c5"
         id="path24" />
      <path
         d="M 84.499207,31.289818 H 80.530453 V 14.135981 h 3.968754 z"
         style="fill:#7857c5"
         id="path26" />
      <path
         d="m 100.58368,31.289818 h -3.968753 v -1.367015 q -1.102432,0.837848 -2.01745,1.278821 -0.915018,0.429948 -2.182815,0.429948 -2.050523,0 -3.163979,-1.179602 -1.102431,-1.179602 -1.102431,-3.483684 v -8.058775 h 3.990802 v 6.140544 q 0,0.937067 0.05512,1.565453 0.06615,0.617362 0.286632,1.025262 0.209462,0.407899 0.628386,0.595313 0.429949,0.187413 1.190627,0.187413 0.507118,0 1.12448,-0.187413 0.617362,-0.187414 1.190626,-0.551216 v -8.775356 h 3.968753 z"
         style="fill:#7857c5"
         id="path28" />
      <path
         d="m 116.43665,22.514462 v 8.775356 h -3.9908 v -6.184641 q 0,-0.903994 -0.0441,-1.53238 -0.0441,-0.639411 -0.24253,-1.036286 -0.19844,-0.396876 -0.60634,-0.573265 -0.39688,-0.187413 -1.12448,-0.187413 -0.58429,0 -1.13551,0.242535 -0.55121,0.231511 -0.99219,0.496094 v 8.775356 h -3.96875 V 18.909511 h 3.96875 v 1.367015 q 1.02527,-0.804775 1.96233,-1.256772 0.93707,-0.451997 2.07257,-0.451997 1.2237,0 2.16077,0.551216 0.93707,0.540191 1.46624,1.598526 1.19062,-1.003213 2.3151,-1.576478 1.12448,-0.573264 2.20487,-0.573264 2.00642,0 3.04271,1.20165 1.04731,1.201651 1.04731,3.461636 v 8.058775 h -3.99081 v -6.184641 q 0,-0.915019 -0.0441,-1.543405 -0.0331,-0.628386 -0.23151,-1.025261 -0.18742,-0.396876 -0.59532,-0.573265 -0.4079,-0.187413 -1.14653,-0.187413 -0.49609,0 -0.97014,0.176389 -0.47404,0.165365 -1.15755,0.56224 z"
         style="fill:#7857c5"
         id="path30" />
    </g>
    <g
       id="g923"
       transform="matrix(0.10348183,0,0,0.10348183,7.5474414,21.506486)">
      <path
         fill="#ad7136"
         d="m 282,67 c 6,-16 16,-29 29,-40 L 289,0 c -22,17 -37,41 -43,68 l 17,23 z"
         id="path900" />
      <path
         fill="#946af9"
         d="m 311,63 c -17,0 -33,4 -48,11 -16,-7 -32,-11 -49,-11 -87,0 -158,96 -158,214 0,118 71,214 158,214 17,0 33,-4 49,-11 15,7 31,11 48,11 87,0 158,-96 158,-214 C 469,159 398,63 311,63 Z"
         id="path902" />
      <path
         fill="#7857c5"
         d="m 231,489 -17,2 C 127,491 56,395 56,277 56,159 127,63 214,63 l 17,1 c -39,12 -70,102 -70,213 0,111 31,201 70,212 z"
         id="path904" />
      <path
         fill="#40bc26"
         d="M 207,220 A 176,176 0 0 1 30,263 176,176 0 0 1 251,43 l 1,5 c 17,59 2,125 -45,172 z"
         id="path906" />
      <path
         fill="#33961e"
         d="M 252,48 A 421,421 0 0 0 57,270 L 30,263 A 176,176 0 0 1 251,43 Z"
         id="path908" />
    </g>
  </g>
</svg>
