<?xml version="1.0" encoding="UTF-8" standalone="no"?>
<svg
   viewBox="0 0 400 230"
   version="1.1"
   id="svg8"
   sodipodi:docname="medplum-logo-color-on-white.svg"
   width="400"
   height="230"
   inkscape:version="1.4.2 (ebf0e940, 2025-05-08)"
   xmlns:inkscape="http://www.inkscape.org/namespaces/inkscape"
   xmlns:sodipodi="http://sodipodi.sourceforge.net/DTD/sodipodi-0.dtd"
   xmlns="http://www.w3.org/2000/svg"
   xmlns:svg="http://www.w3.org/2000/svg">
  <defs
     id="defs8" />
  <sodipodi:namedview
     id="namedview8"
     pagecolor="#ffffff"
     bordercolor="#000000"
     borderopacity="0.25"
     inkscape:showpageshadow="2"
     inkscape:pageopacity="0.0"
     inkscape:pagecheckerboard="0"
     inkscape:deskcolor="#d1d1d1"
     showgrid="false"
     inkscape:zoom="1.159434"
     inkscape:cx="213.46623"
     inkscape:cy="114.71115"
     inkscape:window-width="1712"
     inkscape:window-height="985"
     inkscape:window-x="0"
     inkscape:window-y="43"
     inkscape:window-maximized="1"
     inkscape:current-layer="svg8" />
  <rect
     style="fill:#ffffff;fill-opacity:1"
     id="rect8"
     width="400"
     height="230"
     x="0"
     y="0"
     rx="50"
     ry="50" />
  <path
     fill="#000000"
     d="m 108.68,102.4 c -0.6,-3 -3,-4.8 -4.6,-5.6 l 1,-2 c 1.6,0.4 2.8,1.6 4,2.8 0,-2.4 0.2,-3.2 1,-4.2 1.6,-1.8 2.6,-1.8 8.2,-1.8 0,1.4 0.2,3.6 -0.6,4.8 -1.4,1.8 -3.2,1.4 -8.2,1.6 1,1.6 1.4,2.8 1.6,4.4 7.2,-4.8 14.8,-1.4 14.8,7.8 0,8.4 -8,16.6 -16,16.6 -8,0 -16,-8.2 -16,-16.6 0,-9.2 7.6,-12.6 14.8,-7.8 z m -0.6,8.6 h -3.2 c -0.8,0 -1.4,0.6 -1.4,1.4 v 0.8 c 0,0.8 0.6,1.4 1.4,1.4 h 3.2 v 3.2 c 0,0.8 0.6,1.4 1.4,1.4 h 0.8 c 0.8,0 1.4,-0.6 1.4,-1.4 v -3.2 h 3.2 c 0.8,0 1.4,-0.6 1.4,-1.4 v -0.8 c 0,-0.8 -0.6,-1.4 -1.4,-1.4 h -3.2 v -3.2 c 0,-0.8 -0.6,-1.4 -1.4,-1.4 h -0.8 c -0.8,0 -1.4,0.6 -1.4,1.4 z"
     id="path1"
     style="stroke-width:0.2" />
  <path
     fill="#000000"
     d="M 139.16,126.8 V 98 h 4.34 l 9.94,20.4 9.96,-20.4 h 4.34 v 28.8 h -4.46 v -18.44 l -8.84,18.44 h -1.92 l -8.84,-18.44 v 18.44 z"
     aria-label="M"
     id="path2"
     style="stroke-width:0.2" />
  <path
     fill="#000000"
     d="m 181.22,127.38 a 11.4,11.4 0 0 1 -5.76,-1.42 10.1,10.1 0 0 1 -3.88,-3.96 c -0.92,-1.66 -1.4,-3.6 -1.4,-5.78 a 12.8,12.8 0 0 1 1.4,-6.12 9.84,9.84 0 0 1 3.74,-4.1 c 1.6,-0.96 3.48,-1.44 5.6,-1.44 a 9.28,9.28 0 0 1 9.2,6 15.16,15.16 0 0 1 0.86,6.76 h -4.78 v -1.8 c 0,-2.32 -0.4,-4.04 -1.24,-5.12 -0.8,-1.08 -2.1,-1.6 -3.84,-1.6 -1.98,0 -3.44,0.6 -4.38,1.82 -0.96,1.2 -1.44,3 -1.44,5.34 0,2.2 0.48,3.88 1.44,5.08 0.96,1.2 2.36,1.8 4.2,1.8 1.16,0 2.2,-0.26 3.04,-0.8 a 5.2,5.2 0 0 0 2,-2.28 l 4.74,1.44 a 9.54,9.54 0 0 1 -3.82,4.54 c -1.7,1.08 -3.6,1.6 -5.68,1.6 z m -7.44,-10.06 v -3.64 h 14.84 v 3.66 z"
     aria-label="e"
     id="path3"
     style="stroke-width:0.2" />
  <path
     fill="#000000"
     d="m 203.24,127.38 c -1.98,0 -3.7,-0.5 -5.2,-1.5 a 9.92,9.92 0 0 1 -3.44,-4.1 13.2,13.2 0 0 1 -1.24,-5.8 c 0,-2.2 0.4,-4.14 1.24,-5.82 a 9.38,9.38 0 0 1 8.84,-5.56 8.52,8.52 0 0 1 8.32,5.56 15.1,15.1 0 0 1 1.06,5.84 c 0,2.14 -0.36,4.06 -1.06,5.8 -0.72,1.72 -1.8,3.08 -3.22,4.08 -1.44,1 -3.2,1.5 -5.3,1.5 z m 0.74,-4.32 c 1.3,0 2.34,-0.3 3.12,-0.88 0.8,-0.6 1.36,-1.44 1.74,-2.5 a 11.16,11.16 0 0 0 0.54,-3.68 c 0,-1.44 -0.18,-2.66 -0.54,-3.72 a 5.32,5.32 0 0 0 -1.7,-2.48 c -0.8,-0.6 -1.8,-0.9 -3,-0.9 a 5.12,5.12 0 0 0 -5.06,3.54 10,10 0 0 0 -0.6,3.56 10.4,10.4 0 0 0 0.6,3.6 c 0.4,1.04 1,1.9 1.8,2.52 0.8,0.62 1.84,0.94 3.1,0.94 z m 5.4,3.72 v -15.14 h -0.6 V 98 h 4.86 v 28.8 z"
     aria-label="d"
     id="path4"
     style="stroke-width:0.2" />
  <path
     fill="#000000"
     d="m 226.98,127.4 a 8.96,8.96 0 0 1 -5.28,-1.5 9.1,9.1 0 0 1 -3.2,-4.1 15,15 0 0 1 -1.08,-5.8 c 0,-2.18 0.36,-4.12 1.08,-5.84 a 9.4,9.4 0 0 1 3.18,-4.08 c 1.4,-1 3.14,-1.5 5.2,-1.5 a 9.24,9.24 0 0 1 8.76,5.58 13.22,13.22 0 0 1 1.24,5.82 c 0,2.16 -0.4,4.1 -1.2,5.82 a 10,10 0 0 1 -3.44,4.1 9,9 0 0 1 -5.2,1.5 z m -10.4,9 v -31.2 h 4.26 v 15.12 h 0.6 v 16.04 z m 9.68,-13.32 a 4.8,4.8 0 0 0 3.08,-0.96 c 0.82,-0.62 1.42,-1.48 1.8,-2.54 a 10.4,10.4 0 0 0 0.6,-3.6 c 0,-1.3 -0.2,-2.48 -0.6,-3.54 -0.4,-1.1 -1,-1.94 -1.84,-2.56 a 5.1,5.1 0 0 0 -3.2,-0.98 4.8,4.8 0 0 0 -3,0.92 5,5 0 0 0 -1.72,2.46 11.6,11.6 0 0 0 -0.54,3.7 c 0,1.4 0.2,2.64 0.54,3.7 a 5.2,5.2 0 0 0 1.74,2.5 c 0.8,0.6 1.84,0.9 3.16,0.9 z"
     aria-label="p"
     id="path5"
     style="stroke-width:0.2" />
  <path
     fill="#000000"
     d="M 239.34,126.8 V 98 h 4.8 v 28.8 z"
     aria-label="l"
     id="path6"
     style="stroke-width:0.2" />
  <path
     fill="#000000"
     d="m 255.54,127.24 c -1.6,0 -2.9,-0.26 -3.94,-0.8 a 6.9,6.9 0 0 1 -2.48,-2.04 9.9,9.9 0 0 1 -1.4,-2.64 14.82,14.82 0 0 1 -0.68,-4.68 v -12.04 h 4.9 v 10.38 c 0,0.66 0.04,1.4 0.14,2.24 0.08,0.84 0.3,1.64 0.62,2.4 0.36,0.78 0.86,1.4 1.52,1.88 a 4.6,4.6 0 0 0 2.76,0.76 c 0.6,0 1.2,-0.1 1.8,-0.3 0.6,-0.2 1.14,-0.56 1.6,-1.02 0.52,-0.5 0.92,-1.18 1.2,-2 0.3,-0.88 0.44,-1.96 0.44,-3.28 l 2.86,1.24 c 0,1.84 -0.36,3.5 -1.06,5 a 8.4,8.4 0 0 1 -3.16,3.56 9.2,9.2 0 0 1 -5.12,1.34 z m 7.06,-0.64 v -6.7 H 262 v -14.86 h 4.88 v 21.6 z"
     aria-label="u"
     id="path7"
     style="stroke-width:0.2" />
  <path
     fill="#000000"
     d="m 295.98,126.66 v -13.14 q 0,-2.2 -1.08,-3.44 -1.1,-1.28 -2.98,-1.28 -1.2,0 -2.1,0.56 -0.9,0.52 -1.44,1.56 -0.54,1 -0.54,2.42 l -2.14,-1.26 q 0,-2.22 1,-3.94 1.04,-1.7 2.8,-2.66 1.76,-0.98 3.92,-0.98 3.58,0 5.46,2.18 1.94,2.12 1.94,5.64 v 14.32 z m -25.96,0 v -21.6 h 4.26 v 6.68 h 0.6 v 14.88 z m 13.02,0 V 113.6 q 0,-2.24 -1.1,-3.5 -1.1,-1.28 -3,-1.28 -1.84,0 -2.96,1.28 -1.1,1.26 -1.1,3.26 l -2.18,-1.44 q 0,-2.08 1.08,-3.76 1,-1.68 2.8,-2.64 1.76,-1 3.96,-1 2.42,0 4.04,1.06 1.64,1.02 2.42,2.8 0.84,1.78 0.84,4 v 14.28 z"
     aria-label="m"
     id="path8"
     style="stroke-width:0.2" />
</svg>
