<?xml version="1.0" encoding="UTF-8" standalone="no"?>
<svg
   viewBox="0 0 540 540"
   version="1.1"
   id="svg1"
   sodipodi:docname="medplum-symbol-plum-on-white.svg"
   width="540"
   height="540"
   inkscape:version="1.4.2 (ebf0e940, 2025-05-08)"
   xmlns:inkscape="http://www.inkscape.org/namespaces/inkscape"
   xmlns:sodipodi="http://sodipodi.sourceforge.net/DTD/sodipodi-0.dtd"
   xmlns="http://www.w3.org/2000/svg"
   xmlns:svg="http://www.w3.org/2000/svg">
  <defs
     id="defs1" />
  <sodipodi:namedview
     id="namedview1"
     pagecolor="#ffffff"
     bordercolor="#000000"
     borderopacity="0.25"
     inkscape:showpageshadow="2"
     inkscape:pageopacity="0.0"
     inkscape:pagecheckerboard="0"
     inkscape:deskcolor="#d1d1d1"
     inkscape:zoom="0.32"
     inkscape:cx="248.4375"
     inkscape:cy="295.3125"
     inkscape:window-width="1712"
     inkscape:window-height="984"
     inkscape:window-x="0"
     inkscape:window-y="43"
     inkscape:window-maximized="0"
     inkscape:current-layer="svg1" />
  <rect
     style="fill:#ffec99;stroke-width:1.07009"
     id="rect1"
     width="540"
     height="540"
     x="0"
     y="0" />
  <path
     d="m 264,236 c -3,-15 -15,-24 -23,-28 l 5,-10 c 8,2 14,8 20,14 0,-12 1,-16 5,-21 8,-9 13,-9 41,-9 0,7 1,18 -3,24 -7,9 -16,7 -41,8 5,8 7,14 8,22 36,-24 74,-7 74,39 0,42 -40,83 -80,83 -40,0 -80,-41 -80,-83 0,-46 38,-63 74,-39 z m -3,43 h -16 c -4,0 -7,3 -7,7 v 4 c 0,4 3,7 7,7 h 16 v 16 c 0,4 3,7 7,7 h 4 c 4,0 7,-3 7,-7 v -16 h 16 c 4,0 7,-3 7,-7 v -4 c 0,-4 -3,-7 -7,-7 h -16 v -16 c 0,-4 -3,-7 -7,-7 h -4 c -4,0 -7,3 -7,7 z"
     fill="#862e9c"
     id="path1" />
</svg>
